<svg id="Layer_1" data-name="Layer 1" xmlns="http://www.w3.org/2000/svg" viewBox="0 0 512 512">
  <path d="M125.61,175.9H179v5.6c-15.6,1.4-18.4,2.8-18.4,20.6v34.4c4-.4,8.6-3.6,14.4-9.2,11.2-10.6,24.6-24.2,33.8-34.6,6-6.8,5.4-9.4-3.2-10.6l-5.6-.6v-5.6h48.6v5.6c-15,1.8-20.2,2.8-33.6,16.6-6,5.8-21.6,21-34.4,33.6,15.2,18,37.4,43.6,47.8,54.6,10.2,11,12.8,12.6,25.2,14v5.6h-32c-15.4-17.4-31.6-36.8-49.8-58-4.6-5.6-8-6-11.2-5.8v38c0,17.4,1.8,18.8,18.4,20.2v5.6h-53.4v-5.6c16.4-1.4,18-2.8,18-20.2v-78c0-18-1.4-19.4-18-20.6Z" fill="#d6b0a3"/>
  <path d="M369,246.44c-16.6,1.6-18.2,2.6-18.2,19.39V346c0,16.8,1.8,17.4,18.2,19.2v5.6h-53.6v-5.6c16.6-2,18.2-2.4,18.2-19.2V306h-68.4v40c0,16.6,1.6,17.2,18,19.2v5.6h-53.4v-5.6c16.2-1.8,18-2.4,18-19.2v-80.2c0-16.79-1.8-17.79-18-19.39v-5.6h53.4v5.6c-16,1.4-18,2.8-18,19.39v31.8h68.4v-31.8c0-16.59-2.2-18-18.2-19.39v-5.6H369Z" fill="#d6b0a3"/>
  <ellipse cx="246.69" cy="273.48" rx="204.48" ry="194.61" fill="none" stroke="#d6b0a3" stroke-miterlimit="10" stroke-width="10"/>
</svg>
