<svg fill="#dc4220" xmlns="http://www.w3.org/2000/svg" viewBox="0 0 256 256">
  <g id="html">
    <path d="M19.12,0a3.86,3.86,0,0,0-3.9,4.26L35.06,226.75a6.65,6.65,0,0,0,4.5,5.41l84.17,23.37a18.24,18.24,0,0,0,8.25,0l84.43-23.41a6.65,6.65,0,0,0,4.5-5.41L240.78,4.26A3.84,3.84,0,0,0,236.88,0ZM198.54,51c-.19,2-2.22,24.57-2.24,24.57H92.21a3.85,3.85,0,0,0-3.93,3.78c0,.16,0,.32,0,.48l1.84,20.48a4.77,4.77,0,0,0,4.66,4.26H190a3.44,3.44,0,0,1,3.48,3.38c0,.14,0,.28,0,.42-.19,2-7.1,79.47-7.17,80.79s-2.05,2.91-4.33,3.54l-49.74,13.79L128,207.68s-1.91-.5-4.18-1.13L74,192.74a6.66,6.66,0,0,1-4.51-5.41l-3.2-36a3.84,3.84,0,0,1,3.9-4.26H90.08a4.79,4.79,0,0,1,4.66,4.26L96,165.44a6.61,6.61,0,0,0,4.51,5.38l23.29,6.28,4.14,1.12,4.15-1.12,23.34-6.3a6.63,6.63,0,0,0,4.5-5.38l2.53-28.21A3.85,3.85,0,0,0,159,133a3.62,3.62,0,0,0-.47,0H68.93a4.78,4.78,0,0,1-4.66-4.26s-6.74-75.54-6.93-77.63a3.67,3.67,0,0,1,3.52-3.81H194.64a3.66,3.66,0,0,1,3.89,3.42c0,.11,0,.21,0,.32Z"/>
  </g>
</svg>
